<svg width="16" height="16" viewBox="0 0 16 16" fill="none" xmlns="http://www.w3.org/2000/svg">
<path d="M7.85002 3.01492C8.69701 3.08196 9.51295 3.36372 10.2208 3.83363C10.9287 4.30353 11.5051 4.94606 11.8958 5.70058C12.2864 6.4551 12.4783 7.29672 12.4534 8.14599C12.4284 8.99527 12.1875 9.82418 11.7533 10.5545C11.3191 11.2848 10.706 11.8924 9.97179 12.32C9.23758 12.7476 8.40652 12.981 7.55706 12.9983C6.70759 13.0156 5.86774 12.8161 5.11678 12.4186C4.36582 12.0212 3.72851 11.439 3.26502 10.7269C4.66802 10.3469 6.58102 9.42492 7.42502 7.17592C7.97702 5.70192 8.00902 4.23692 7.85002 3.01492ZM13.456 7.99992C13.456 7.19434 13.2937 6.39702 12.9789 5.6555C12.6641 4.91397 12.2032 4.24344 11.6236 3.68388C11.0441 3.12432 10.3578 2.6872 9.60573 2.39857C8.85363 2.10994 8.05111 1.97573 7.24602 2.00392C7.17396 2.00629 7.10327 2.02421 7.03879 2.05645C6.97431 2.0887 6.91756 2.13451 6.87245 2.19074C6.82733 2.24697 6.7949 2.3123 6.7774 2.38223C6.75989 2.45217 6.75771 2.52506 6.77102 2.59592C7.00102 3.80992 7.05102 5.32392 6.48802 6.82392C5.68802 8.95792 3.68602 9.66392 2.41102 9.89492C2.33512 9.90865 2.26342 9.93975 2.20154 9.98579C2.13965 10.0318 2.08926 10.0916 2.0543 10.1603C2.01934 10.2291 2.00077 10.305 2.00002 10.3821C1.99928 10.4592 2.01639 10.5355 2.05002 10.6049C2.63978 11.8298 3.62803 12.8181 4.85289 13.4079C6.07775 13.9977 7.46661 14.1541 8.79195 13.8514C10.1173 13.5487 11.3006 12.8049 12.1479 11.7418C12.9953 10.6787 13.4565 9.35939 13.456 7.99992Z" fill="white"/>
</svg>
