<svg width="29" height="29" viewBox="0 0 29 29" fill="none" xmlns="http://www.w3.org/2000/svg">
<path d="M17.5054 5.43386C17.6126 5.48145 17.7093 5.54969 17.7901 5.63468C17.8709 5.71967 17.9342 5.81974 17.9763 5.92919C18.0185 6.03863 18.0386 6.1553 18.0356 6.27253C18.0326 6.38976 18.0066 6.50526 17.959 6.61243L10.8161 22.6839C10.72 22.9003 10.5418 23.0697 10.3208 23.1547C10.0998 23.2398 9.85399 23.2336 9.63756 23.1374C9.42112 23.0413 9.25174 22.8631 9.16668 22.6421C9.08162 22.4211 9.08784 22.1753 9.18399 21.9589L16.3268 5.88743C16.3744 5.78025 16.4427 5.6835 16.5277 5.6027C16.6127 5.5219 16.7127 5.45863 16.8222 5.41651C16.9316 5.37439 17.0483 5.35425 17.1655 5.35722C17.2828 5.3602 17.3982 5.38624 17.5054 5.43386ZM7.73756 9.59993C7.82503 9.67801 7.89627 9.77257 7.9472 9.87819C7.99813 9.9838 8.02775 10.0984 8.03439 10.2155C8.04102 10.3326 8.02453 10.4498 7.98585 10.5605C7.94718 10.6712 7.88708 10.7732 7.80899 10.8606L4.76791 14.2856L7.81256 17.7106C7.89041 17.7983 7.95023 17.9005 7.9886 18.0113C8.02696 18.1222 8.04312 18.2395 8.03616 18.3565C8.0292 18.4736 7.99924 18.5882 7.94801 18.6936C7.89677 18.7991 7.82526 18.8935 7.73756 18.9714C7.64985 19.0492 7.54767 19.109 7.43685 19.1474C7.32603 19.1858 7.20873 19.2019 7.09167 19.195C6.9746 19.188 6.86005 19.158 6.75456 19.1068C6.64907 19.0556 6.5547 18.9841 6.47684 18.8964L2.90541 14.8785C2.76031 14.7151 2.68018 14.5042 2.68018 14.2856C2.68018 14.0671 2.76031 13.8562 2.90541 13.6928L6.47684 9.67493C6.55469 9.5872 6.64905 9.51567 6.75454 9.46443C6.86003 9.41318 6.97459 9.38322 7.09166 9.37625C7.20874 9.36929 7.32604 9.38545 7.43686 9.42383C7.54769 9.46221 7.64986 9.52205 7.73756 9.59993ZM20.8358 9.59993C20.9235 9.52205 21.0256 9.46221 21.1365 9.42383C21.2473 9.38545 21.3646 9.36929 21.4817 9.37625C21.5987 9.38322 21.7133 9.41318 21.8188 9.46443C21.9243 9.51567 22.0186 9.5872 22.0965 9.67493L25.6679 13.6928C25.813 13.8562 25.8932 14.0671 25.8932 14.2856C25.8932 14.5042 25.813 14.7151 25.6679 14.8785L22.0965 18.8964C22.0186 18.9841 21.9243 19.0556 21.8188 19.1068C21.7133 19.158 21.5987 19.188 21.4817 19.195C21.3646 19.2019 21.2473 19.1858 21.1365 19.1474C21.0257 19.109 20.9235 19.0492 20.8358 18.9714C20.7481 18.8935 20.6766 18.7991 20.6253 18.6936C20.5741 18.5882 20.5441 18.4736 20.5372 18.3565C20.5302 18.2395 20.5464 18.1222 20.5847 18.0113C20.6231 17.9005 20.6829 17.7983 20.7608 17.7106L23.8054 14.2856L20.7608 10.8606C20.6829 10.7729 20.6231 10.6708 20.5847 10.5599C20.5463 10.4491 20.5301 10.3318 20.5371 10.2147C20.5441 10.0977 20.574 9.98312 20.6253 9.87762C20.6765 9.77213 20.748 9.67777 20.8358 9.59993Z" fill="#FF7E35"/>
</svg>
