<svg width="29" height="29" viewBox="0 0 29 29" fill="none" xmlns="http://www.w3.org/2000/svg">
<path d="M15.1786 13.3927C15.1786 12.6823 15.4608 12.001 15.9631 11.4987C16.4654 10.9964 17.1467 10.7141 17.8571 10.7141H20.5357C20.7725 10.7141 20.9996 10.8082 21.167 10.9757C21.3345 11.1431 21.4286 11.3702 21.4286 11.607C21.4286 11.8438 21.3345 12.0709 21.167 12.2383C20.9996 12.4058 20.7725 12.4999 20.5357 12.4999H17.8571C17.6203 12.4999 17.3932 12.5939 17.2258 12.7614C17.0583 12.9288 16.9643 13.1559 16.9643 13.3927V14.2856C16.9643 14.5224 17.0583 14.7495 17.2258 14.9169C17.3932 15.0844 17.6203 15.1784 17.8571 15.1784H18.75C19.4604 15.1784 20.1417 15.4606 20.644 15.963C21.1463 16.4653 21.4286 17.1466 21.4286 17.857V18.7499C21.4286 19.4603 21.1463 20.1416 20.644 20.6439C20.1417 21.1462 19.4604 21.4284 18.75 21.4284H16.0714C15.8346 21.4284 15.6075 21.3344 15.4401 21.1669C15.2726 20.9995 15.1786 20.7724 15.1786 20.5356C15.1786 20.2988 15.2726 20.0717 15.4401 19.9042C15.6075 19.7368 15.8346 19.6427 16.0714 19.6427H18.75C18.9868 19.6427 19.2139 19.5486 19.3813 19.3812C19.5488 19.2138 19.6428 18.9867 19.6428 18.7499V17.857C19.6428 17.6202 19.5488 17.3931 19.3813 17.2257C19.2139 17.0582 18.9868 16.9641 18.75 16.9641H17.8571C17.1467 16.9641 16.4654 16.6819 15.9631 16.1796C15.4608 15.6773 15.1786 14.996 15.1786 14.2856V13.3927ZM14.2857 11.607C14.2857 11.3702 14.1916 11.1431 14.0242 10.9757C13.8567 10.8082 13.6296 10.7141 13.3928 10.7141C13.156 10.7141 12.9289 10.8082 12.7615 10.9757C12.5941 11.1431 12.5 11.3702 12.5 11.607V18.7499C12.5 18.9867 12.4059 19.2138 12.2385 19.3812C12.071 19.5486 11.8439 19.6427 11.6071 19.6427H9.82141C9.58461 19.6427 9.35751 19.7368 9.19007 19.9042C9.02262 20.0717 8.92855 20.2988 8.92855 20.5356C8.92855 20.7724 9.02262 20.9995 9.19007 21.1669C9.35751 21.3344 9.58461 21.4284 9.82141 21.4284H11.6071C12.3175 21.4284 12.9988 21.1462 13.5012 20.6439C14.0035 20.1416 14.2857 19.4603 14.2857 18.7499V11.607ZM3.57141 8.03557C3.57141 6.85157 4.04175 5.71606 4.87897 4.87885C5.71619 4.04163 6.85169 3.57129 8.0357 3.57129H20.5357C21.7197 3.57129 22.8552 4.04163 23.6924 4.87885C24.5296 5.71606 25 6.85157 25 8.03557V20.5356C25 21.7196 24.5296 22.8551 23.6924 23.6923C22.8552 24.5295 21.7197 24.9999 20.5357 24.9999H8.0357C6.85169 24.9999 5.71619 24.5295 4.87897 23.6923C4.04175 22.8551 3.57141 21.7196 3.57141 20.5356V8.03557ZM8.0357 5.357C7.3253 5.357 6.64399 5.63921 6.14166 6.14154C5.63933 6.64387 5.35713 7.32517 5.35713 8.03557V20.5356C5.35713 21.246 5.63933 21.9273 6.14166 22.4296C6.64399 22.9319 7.3253 23.2141 8.0357 23.2141H20.5357C21.2461 23.2141 21.9274 22.9319 22.4297 22.4296C22.9321 21.9273 23.2143 21.246 23.2143 20.5356V8.03557C23.2143 7.32517 22.9321 6.64387 22.4297 6.14154C21.9274 5.63921 21.2461 5.357 20.5357 5.357H8.0357Z" fill="#306AFF"/>
</svg>
