<svg width="40" height="40" viewBox="0 0 40 40" fill="none" xmlns="http://www.w3.org/2000/svg">
<path d="M10 2.50488C9.66848 2.50488 9.35054 2.63658 9.11612 2.871C8.8817 3.10542 8.75 3.42336 8.75 3.75488V21.2499C8.75 22.576 9.27678 23.8477 10.2145 24.7854C11.1521 25.7231 12.4239 26.2499 13.75 26.2499H15V32.4999C15 33.1562 15.1293 33.806 15.3804 34.4123C15.6316 35.0187 15.9997 35.5696 16.4637 36.0336C16.9278 36.4977 17.4787 36.8658 18.085 37.117C18.6914 37.3681 19.3412 37.4974 19.9975 37.4974C20.6538 37.4974 21.3036 37.3681 21.91 37.117C22.5163 36.8658 23.0672 36.4977 23.5313 36.0336C23.9953 35.5696 24.3634 35.0187 24.6146 34.4123C24.8657 33.806 24.995 33.1562 24.995 32.4999V26.2499H26.25C27.5761 26.2499 28.8479 25.7231 29.7855 24.7854C30.7232 23.8477 31.25 22.576 31.25 21.2499V3.75488C31.25 3.42336 31.1183 3.10542 30.8839 2.871C30.6495 2.63658 30.3315 2.50488 30 2.50488H10ZM28.75 17.4999H11.25V5.00488H18.75V8.75988C18.75 9.0914 18.8817 9.40935 19.1161 9.64377C19.3505 9.87819 19.6685 10.0099 20 10.0099C20.3315 10.0099 20.6495 9.87819 20.8839 9.64377C21.1183 9.40935 21.25 9.0914 21.25 8.75988V5.00488H23.75V11.2449C23.75 11.5764 23.8817 11.8943 24.1161 12.1288C24.3505 12.3632 24.6685 12.4949 25 12.4949C25.3315 12.4949 25.6495 12.3632 25.8839 12.1288C26.1183 11.8943 26.25 11.5764 26.25 11.2449V5.00488H28.75V17.4999ZM11.25 21.2499V19.9999H28.75V21.2499C28.75 21.9129 28.4866 22.5488 28.0178 23.0177C27.5489 23.4865 26.913 23.7499 26.25 23.7499H23.745C23.4135 23.7499 23.0955 23.8816 22.8611 24.116C22.6267 24.3504 22.495 24.6684 22.495 24.9999V32.4999C22.495 33.1623 22.2319 33.7975 21.7635 34.2659C21.2951 34.7343 20.6599 34.9974 19.9975 34.9974C19.3351 34.9974 18.6999 34.7343 18.2315 34.2659C17.7631 33.7975 17.5 33.1623 17.5 32.4999V24.9999C17.5 24.6684 17.3683 24.3504 17.1339 24.116C16.8995 23.8816 16.5815 23.7499 16.25 23.7499H13.75C13.087 23.7499 12.4511 23.4865 11.9822 23.0177C11.5134 22.5488 11.25 21.9129 11.25 21.2499Z" fill="#2FD887"/>
</svg>
