<svg width="29" height="29" viewBox="0 0 29 29" fill="none" xmlns="http://www.w3.org/2000/svg">
<path d="M12.0536 5.8035C12.0536 5.2115 12.2888 4.64375 12.7074 4.22514C13.126 3.80653 13.6937 3.57136 14.2857 3.57136C14.8777 3.57136 15.4455 3.80653 15.8641 4.22514C16.2827 4.64375 16.5179 5.2115 16.5179 5.8035C16.5179 6.3955 16.2827 6.96326 15.8641 7.38187C15.4455 7.80047 14.8777 8.03565 14.2857 8.03565C13.6937 8.03565 13.126 7.80047 12.7074 7.38187C12.2888 6.96326 12.0536 6.3955 12.0536 5.8035ZM14.2857 1.78564C13.6798 1.78565 13.0816 1.92273 12.5361 2.18661C11.9906 2.45049 11.5119 2.83434 11.1357 3.30943C10.7596 3.78452 10.4958 4.33854 10.364 4.93002C10.2323 5.52149 10.2361 6.13511 10.375 6.72493L7.49645 5.56422C6.79802 5.28293 6.01679 5.28871 5.3226 5.58029C4.62841 5.87188 4.07738 6.4257 3.78931 7.12136C3.64672 7.46586 3.57382 7.83521 3.57484 8.20805C3.57585 8.5809 3.65076 8.94984 3.79522 9.29356C3.93968 9.63728 4.15084 9.94896 4.41648 10.2106C4.68213 10.4722 4.99699 10.6786 5.34288 10.8178L8.92859 12.266V16.5231L5.69109 22.6124C5.5158 22.9419 5.40712 23.3027 5.37126 23.6742C5.3354 24.0456 5.37305 24.4205 5.48208 24.7775C5.59111 25.1344 5.76937 25.4664 6.00668 25.7544C6.244 26.0424 6.53572 26.2809 6.8652 26.4562C7.53061 26.8102 8.3094 26.8854 9.03024 26.6652C9.75109 26.445 10.3549 25.9475 10.709 25.2821L14.2857 18.5535L17.8643 25.2821C18.2181 25.9475 18.8217 26.4451 19.5424 26.6655C20.2631 26.8858 21.0418 26.8109 21.7072 26.4571C22.3726 26.1033 22.8702 25.4997 23.0905 24.779C23.3109 24.0583 23.2359 23.2796 22.8822 22.6142L19.6429 16.5214V12.266L23.2286 10.8178C23.5745 10.6786 23.8893 10.4722 24.155 10.2106C24.4206 9.94896 24.6318 9.63728 24.7763 9.29356C24.9207 8.94984 24.9956 8.5809 24.9966 8.20805C24.9976 7.83521 24.9248 7.46586 24.7822 7.12136C24.4944 6.42538 23.9435 5.87115 23.2493 5.57922C22.5551 5.28728 21.7737 5.28125 21.075 5.56243L18.1982 6.72493C18.3372 6.13496 18.341 5.52119 18.2091 4.92958C18.0773 4.33797 17.8133 3.78385 17.437 3.30873C17.0606 2.83361 16.5816 2.44979 16.0359 2.18603C15.4902 1.92226 14.8919 1.78538 14.2857 1.78564ZM5.44109 7.80172C5.54914 7.54194 5.75503 7.33508 6.01431 7.22583C6.27358 7.11657 6.56542 7.11368 6.82681 7.21779L12.9482 9.691C13.8062 10.0375 14.7652 10.0375 15.6232 9.691L21.7447 7.21779C22.006 7.11368 22.2979 7.11657 22.5572 7.22583C22.8164 7.33508 23.0223 7.54194 23.1304 7.80172C23.1833 7.92846 23.2104 8.06445 23.2103 8.20179C23.2102 8.33913 23.1827 8.47507 23.1295 8.6017C23.0763 8.72832 22.9985 8.84311 22.9006 8.93937C22.8026 9.03564 22.6865 9.11146 22.559 9.16243L18.9732 10.6089C18.6429 10.7425 18.3601 10.9718 18.1613 11.2675C17.9624 11.5631 17.8565 11.9115 17.8572 12.2678V16.5231C17.857 16.8158 17.9287 17.104 18.0661 17.3624L21.3054 23.4535C21.4225 23.6992 21.4403 23.9807 21.3551 24.2392C21.2699 24.4978 21.0883 24.7135 20.848 24.8414C20.6077 24.9694 20.3274 24.9997 20.0653 24.9261C19.8032 24.8525 19.5796 24.6807 19.4411 24.4464L15.8625 17.7142C15.7104 17.4281 15.4833 17.1887 15.2055 17.0218C14.9278 16.8549 14.6098 16.7667 14.2857 16.7667C13.9617 16.7667 13.6437 16.8549 13.3659 17.0218C13.0882 17.1887 12.8611 17.4281 12.709 17.7142L9.13216 24.441C9.06709 24.5634 8.97854 24.6718 8.87158 24.76C8.76461 24.8482 8.64132 24.9144 8.50875 24.955C8.37618 24.9955 8.23692 25.0096 8.09892 24.9963C7.96093 24.983 7.8269 24.9427 7.70449 24.8776C7.58208 24.8125 7.47368 24.724 7.38549 24.617C7.2973 24.5101 7.23104 24.3868 7.1905 24.2542C7.14996 24.1216 7.13592 23.9824 7.1492 23.8444C7.16248 23.7064 7.20281 23.5723 7.26788 23.4499L10.5054 17.3606C10.6425 17.1028 10.7142 16.8152 10.7143 16.5231V12.266C10.7143 11.9103 10.6081 11.5627 10.4092 11.2678C10.2104 10.9729 9.92798 10.744 9.59824 10.6106L6.01252 9.16065C5.88499 9.10968 5.76887 9.03385 5.67092 8.93759C5.57296 8.84132 5.49513 8.72654 5.44196 8.59991C5.38878 8.47329 5.36132 8.33735 5.36117 8.20001C5.36102 8.06267 5.38819 7.92846 5.44109 7.80172Z" fill="#A729F5"/>
</svg>
