<svg width="29" height="29" viewBox="0 0 29 29" fill="none" xmlns="http://www.w3.org/2000/svg">
<path d="M7.14286 1.78906C6.90606 1.78906 6.67896 1.88313 6.51151 2.05057C6.34407 2.21802 6.25 2.44512 6.25 2.68192V15.1783C6.25 16.1256 6.62627 17.034 7.29605 17.7037C7.96582 18.3735 8.87423 18.7498 9.82143 18.7498H10.7143V23.2141C10.7143 23.6828 10.8066 24.147 10.986 24.5801C11.1654 25.0132 11.4283 25.4067 11.7598 25.7382C12.0913 26.0697 12.4848 26.3326 12.9179 26.512C13.351 26.6914 13.8152 26.7837 14.2839 26.7837C14.7527 26.7837 15.2169 26.6914 15.65 26.512C16.0831 26.3326 16.4766 26.0697 16.808 25.7382C17.1395 25.4067 17.4025 25.0132 17.5818 24.5801C17.7612 24.147 17.8536 23.6828 17.8536 23.2141V18.7498H18.75C19.6972 18.7498 20.6056 18.3735 21.2754 17.7037C21.9452 17.034 22.3214 16.1256 22.3214 15.1783V2.68192C22.3214 2.44512 22.2274 2.21802 22.0599 2.05057C21.8925 1.88313 21.6654 1.78906 21.4286 1.78906H7.14286ZM20.5357 12.4998H8.03571V3.57478H13.3929V6.25692C13.3929 6.49372 13.4869 6.72082 13.6544 6.88827C13.8218 7.05571 14.0489 7.14978 14.2857 7.14978C14.5225 7.14978 14.7496 7.05571 14.9171 6.88827C15.0845 6.72082 15.1786 6.49372 15.1786 6.25692V3.57478H16.9643V8.03192C16.9643 8.26872 17.0584 8.49582 17.2258 8.66327C17.3932 8.83071 17.6203 8.92478 17.8571 8.92478C18.0939 8.92478 18.321 8.83071 18.4885 8.66327C18.6559 8.49582 18.75 8.26872 18.75 8.03192V3.57478H20.5357V12.4998ZM8.03571 15.1783V14.2855H20.5357V15.1783C20.5357 15.6519 20.3476 16.1062 20.0127 16.441C19.6778 16.7759 19.2236 16.9641 18.75 16.9641H16.9607C16.7239 16.9641 16.4968 17.0581 16.3294 17.2256C16.1619 17.393 16.0679 17.6201 16.0679 17.8569V23.2141C16.0679 23.6872 15.8799 24.1409 15.5454 24.4755C15.2108 24.81 14.7571 24.998 14.2839 24.998C13.8108 24.998 13.3571 24.81 13.0225 24.4755C12.6879 24.1409 12.5 23.6872 12.5 23.2141V17.8569C12.5 17.6201 12.4059 17.393 12.2385 17.2256C12.071 17.0581 11.8439 16.9641 11.6071 16.9641H9.82143C9.34783 16.9641 8.89362 16.7759 8.55874 16.441C8.22385 16.1062 8.03571 15.6519 8.03571 15.1783Z" fill="#2FD887"/>
</svg>
