<svg width="22" height="22" viewBox="0 0 22 22" fill="none" xmlns="http://www.w3.org/2000/svg">
<path d="M11.6071 9.82143C11.6071 9.11103 11.8893 8.42972 12.3917 7.92739C12.894 7.42506 13.5753 7.14286 14.2857 7.14286H16.9643C17.2011 7.14286 17.4282 7.23693 17.5956 7.40437C17.7631 7.57181 17.8571 7.79891 17.8571 8.03571C17.8571 8.27251 17.7631 8.49962 17.5956 8.66706C17.4282 8.8345 17.2011 8.92857 16.9643 8.92857H14.2857C14.0489 8.92857 13.8218 9.02264 13.6544 9.19008C13.4869 9.35753 13.3929 9.58463 13.3929 9.82143V10.7143C13.3929 10.9511 13.4869 11.1782 13.6544 11.3456C13.8218 11.5131 14.0489 11.6071 14.2857 11.6071H15.1786C15.889 11.6071 16.5703 11.8893 17.0726 12.3917C17.5749 12.894 17.8571 13.5753 17.8571 14.2857V15.1786C17.8571 15.889 17.5749 16.5703 17.0726 17.0726C16.5703 17.5749 15.889 17.8571 15.1786 17.8571H12.5C12.2632 17.8571 12.0361 17.7631 11.8687 17.5956C11.7012 17.4282 11.6071 17.2011 11.6071 16.9643C11.6071 16.7275 11.7012 16.5004 11.8687 16.3329C12.0361 16.1655 12.2632 16.0714 12.5 16.0714H15.1786C15.4154 16.0714 15.6425 15.9774 15.8099 15.8099C15.9774 15.6425 16.0714 15.4154 16.0714 15.1786V14.2857C16.0714 14.0489 15.9774 13.8218 15.8099 13.6544C15.6425 13.4869 15.4154 13.3929 15.1786 13.3929H14.2857C13.5753 13.3929 12.894 13.1107 12.3917 12.6083C11.8893 12.106 11.6071 11.4247 11.6071 10.7143V9.82143ZM10.7143 8.03571C10.7143 7.79891 10.6202 7.57181 10.4528 7.40437C10.2853 7.23693 10.0582 7.14286 9.82143 7.14286C9.58463 7.14286 9.35753 7.23693 9.19008 7.40437C9.02264 7.57181 8.92857 7.79891 8.92857 8.03571V15.1786C8.92857 15.4154 8.8345 15.6425 8.66706 15.8099C8.49962 15.9774 8.27251 16.0714 8.03571 16.0714H6.25C6.0132 16.0714 5.7861 16.1655 5.61865 16.3329C5.45121 16.5004 5.35714 16.7275 5.35714 16.9643C5.35714 17.2011 5.45121 17.4282 5.61865 17.5956C5.7861 17.7631 6.0132 17.8571 6.25 17.8571H8.03571C8.74612 17.8571 9.42742 17.5749 9.92975 17.0726C10.4321 16.5703 10.7143 15.889 10.7143 15.1786V8.03571ZM0 4.46429C0 3.28028 0.470343 2.14477 1.30756 1.30756C2.14477 0.470343 3.28028 0 4.46429 0H16.9643C18.1483 0 19.2838 0.470343 20.121 1.30756C20.9582 2.14477 21.4286 3.28028 21.4286 4.46429V16.9643C21.4286 18.1483 20.9582 19.2838 20.121 20.121C19.2838 20.9582 18.1483 21.4286 16.9643 21.4286H4.46429C3.28028 21.4286 2.14477 20.9582 1.30756 20.121C0.470343 19.2838 0 18.1483 0 16.9643V4.46429ZM4.46429 1.78571C3.75388 1.78571 3.07258 2.06792 2.57025 2.57025C2.06792 3.07258 1.78571 3.75388 1.78571 4.46429V16.9643C1.78571 17.6747 2.06792 18.356 2.57025 18.8583C3.07258 19.3607 3.75388 19.6429 4.46429 19.6429H16.9643C17.6747 19.6429 18.356 19.3607 18.8583 18.8583C19.3607 18.356 19.6429 17.6747 19.6429 16.9643V4.46429C19.6429 3.75388 19.3607 3.07258 18.8583 2.57025C18.356 2.06792 17.6747 1.78571 16.9643 1.78571H4.46429Z" fill="#306AFF"/>
</svg>
